<svg xmlns="http://www.w3.org/2000/svg" width="1080.48" height="4494.91" viewBox="0 0 1080.48 4494.91"><path d="M1200,25.2H1040.5a9.5,9.5,0,0,0-9.5,9.5V365.6a9.5,9.5,0,0,1-9.5,9.5H878a9.5,9.5,0,0,1-9.5-9.5V320.9a9.5,9.5,0,0,0-9.5-9.5H585.3a9.5,9.5,0,0,0-9.5,9.5V717a9.5,9.5,0,0,1-9.5,9.5H293.8a9.5,9.5,0,0,0-9.5,9.5v396.7a11.5,11.5,0,0,0,11.5,11.5H504.4a11.5,11.5,0,0,0,11.5-11.5V892a11.5,11.5,0,0,0-11.5-11.5H184.6A11.5,11.5,0,0,0,173.1,892v582.2a11.5,11.5,0,0,0,11.5,11.5H772.8a11.5,11.5,0,0,1,11.5,11.5v114.5a11.5,11.5,0,0,0,11.5,11.5h229.6a11.5,11.5,0,0,1,11.5,11.5v523a11.5,11.5,0,0,1-11.5,11.5H768.2a11.5,11.5,0,0,1-11.5-11.5v-86.2a11.5,11.5,0,0,1,11.5-11.5H903.7a11.5,11.5,0,0,1,11.5,11.5v175.7a11.5,11.5,0,0,1-11.5,11.5H285.9a11.5,11.5,0,0,0-11.5,11.5v240.51s-3,16.05,14,16.05H580.89c8.2,0,14.84,4,14.84,13v7.92c0,15.21,6.64,14.31,14.83,14.31h625.19a14.83,14.83,0,0,1,14.83,14.83v741.4a14.83,14.83,0,0,1-14.83,14.83H456.42c-10.13,0-14.83,3.74-14.83,10.56s5.65,10.23,14.83,10.23H585.17c8.19,0,14.83,4.7,14.83,12.08V4518.61" transform="translate(-171.6 -23.7)" fill="none" stroke="#27aae1" stroke-miterlimit="10" stroke-width="3"/></svg>