<?xml version="1.0" encoding="utf-8"?>
<!-- Generator: Adobe Illustrator 25.0.1, SVG Export Plug-In . SVG Version: 6.00 Build 0)  -->
<svg version="1.1" id="Layer_1" xmlns="http://www.w3.org/2000/svg" xmlns:xlink="http://www.w3.org/1999/xlink" x="0px" y="0px"
	 viewBox="0 0 1200 2832.4" style="enable-background:new 0 0 1200 2832.4;" xml:space="preserve">
<style type="text/css">
	.st0{fill:#FFFFFF;stroke:#27AAE1;stroke-width:3;stroke-miterlimit:10;}
</style>
<path class="st0" d="M1200,25.2h-159.5c-5.3,0-9.5,4.3-9.5,9.5v330.9c0,5.3-4.3,9.5-9.5,9.5H878c-5.3,0-9.5-4.3-9.5-9.5v-44.7
	c0-5.3-4.3-9.5-9.5-9.5H585.3c-5.3,0-9.5,4.3-9.5,9.5V717c0,5.3-4.3,9.5-9.5,9.5H293.8c-5.3,0-9.5,4.3-9.5,9.5v396.7
	c0,6.4,5.2,11.5,11.5,11.5h208.6c6.4,0,11.5-5.2,11.5-11.5V892c0-6.4-5.2-11.5-11.5-11.5H184.6c-6.4,0-11.5,5.2-11.5,11.5v582.2
	c0,6.4,5.2,11.5,11.5,11.5h588.2c6.4,0,11.5,5.2,11.5,11.5v114.5c0,6.4,5.2,11.5,11.5,11.5h229.6c6.4,0,11.5,5.2,11.5,11.5v523
	c0,6.4-5.2,11.5-11.5,11.5H768.2c-6.4,0-11.5-5.2-11.5-11.5v-86.2c0-6.4,5.2-11.5,11.5-11.5h135.5c6.4,0,11.5,5.2,11.5,11.5v175.7
	c0,6.4-5.2,11.5-11.5,11.5H285.9c-6.4,0-11.5,5.2-11.5,11.5v562.2"/>
</svg>
